<?xml version="1.0" encoding="utf-8"?>
<svg id="master-artboard" viewBox="0 0 512 512" version="1.1" xmlns="http://www.w3.org/2000/svg" x="0px" y="0px" style="enable-background:new 0 0 336 235.2;" width="512px" height="512px">
<defs>
<style id="ee-google-fonts">
    @import url(https://fonts.googleapis.com/css?family=Merienda+One:400);
</style>
</defs>
<path class="st0" d="M 394.127197265625 219.67999267578125 C 390.7672119140625 220.98666381835938 388.15386962890625 221.63999938964844 386.2872009277344 221.63999938964844 C 380.68719482421875 221.63999938964844 377.560546875 220.84666442871094 376.9071960449219 219.25999450683594 C 367.5738525390625 195.27333068847656 361.41387939453125 179.82666015625 358.4272155761719 172.9199981689453 C 358.147216796875 175.44000244140625 357.4005432128906 181.27333068847656 356.18719482421875 190.4199981689453 C 353.6672058105469 208.33999633789062 352.4071960449219 223.22666931152344 352.4071960449219 235.0800018310547 C 352.4071960449219 237.97332763671875 352.5938720703125 241.84666442871094 352.9671936035156 246.6999969482422 C 346.4338684082031 246.6999969482422 342.02386474609375 245.92999267578125 339.7372131347656 244.38999938964844 C 337.4505310058594 242.85000610351562 336.30718994140625 240.67999267578125 336.30718994140625 237.8800048828125 C 336.30718994140625 236.94667053222656 337.87054443359375 224.25332641601562 340.9971923828125 199.8000030517578 C 344.1238708496094 175.34666442871094 345.68719482421875 158.31332397460938 345.68719482421875 148.6999969482422 L 345.68719482421875 148 C 342.98052978515625 143.61334228515625 340.1338806152344 140.01998901367188 337.147216796875 137.22000122070312 C 340.60052490234375 134.7933349609375 344.7538757324219 133.5800018310547 349.6072082519531 133.5800018310547 C 355.7672119140625 133.5800018310547 360.5271911621094 136.4499969482422 363.88720703125 142.19000244140625 C 367.2471923828125 147.92999267578125 373.82720947265625 163.67999267578125 383.627197265625 189.44000244140625 L 390.06719970703125 205.95999145507812 C 390.627197265625 205.02667236328125 391.4671936035156 203.76666259765625 392.58721923828125 202.17999267578125 C 415.36053466796875 168.48666381835938 427.0738525390625 145.6199951171875 427.7272033691406 133.5800018310547 C 427.7272033691406 133.67333984375 428.8471984863281 133.79000854492188 431.08721923828125 133.92999267578125 C 433.32720947265625 134.07000732421875 435.73052978515625 134.5366668701172 438.2972106933594 135.3300018310547 C 440.8638610839844 136.1233367919922 442.73052978515625 137.336669921875 443.897216796875 138.97000122070312 C 445.0638732910156 140.60333251953125 445.7872009277344 142.19000244140625 446.06719970703125 143.73001098632812 C 446.3471984863281 145.26998901367188 446.4872131347656 147.88333129882812 446.4872131347656 151.57000732421875 C 446.4872131347656 155.2566680908203 444.94720458984375 167.64666748046875 441.8671875 188.74000549316406 C 438.7872009277344 209.8333282470703 437.2471923828125 224.60333251953125 437.2471923828125 233.0500030517578 C 437.2471923828125 241.49667358398438 437.9005432128906 247.25999450683594 439.20721435546875 250.33999633789062 C 431.27386474609375 248.2866668701172 425.86053466796875 245.55667114257812 422.9671936035156 242.14999389648438 C 420.0738525390625 238.7433319091797 418.627197265625 234.0066680908203 418.627197265625 227.94000244140625 C 418.627197265625 224.39334106445312 419.5838623046875 215.6666717529297 421.4971923828125 201.75999450683594 C 423.4105224609375 187.85333251953125 424.74053955078125 176.74667358398438 425.4872131347656 168.44000244140625 C 421.7538757324219 174.8800048828125 416.45721435546875 183.6999969482422 409.5971984863281 194.89999389648438 C 402.7372131347656 206.10000610351562 398.6072082519531 212.75 397.20721435546875 214.85000610351562 C 395.80718994140625 216.9499969482422 394.780517578125 218.55999755859375 394.127197265625 219.67999267578125 Z" transform="matrix(3.2013602256774902, 0, 0, 3.2013602256774902, -999.49853515625, -352.41961669921875)" style="fill: #cd853f; white-space: pre; color: #cd853f;"/>
</svg>